<?xml version="1.0" encoding="UTF-8"?><svg id="Layer_1" xmlns="http://www.w3.org/2000/svg" viewBox="0 0 22.68 22.57"><defs><style>.cls-1{fill:#000000;}</style></defs><path class="cls-1" d="m11.29,22.57C5.06,22.57,0,17.51,0,11.29S5.06,0,11.29,0c2.02,0,4,.54,5.73,1.56.6.36.81,1.14.45,1.74-.36.6-1.14.8-1.74.45-1.34-.79-2.87-1.21-4.44-1.21C6.46,2.54,2.54,6.46,2.54,11.29s3.92,8.75,8.75,8.75,8.75-3.92,8.75-8.75c0-.43-.03-.86-.09-1.28-.1-.69.38-1.34,1.07-1.44.69-.1,1.34.38,1.44,1.07.08.54.12,1.1.12,1.65,0,6.22-5.06,11.29-11.29,11.29Z"/><path class="cls-1" d="m5.31,13.08c-.37,0-.69-.26-.76-.64-.07-.38-.1-.77-.1-1.16,0-3.77,3.06-6.83,6.83-6.83.42,0,.77.34.77.77s-.34.77-.77.77c-2.92,0-5.29,2.37-5.29,5.29,0,.3.03.61.08.9.07.42-.21.82-.63.89-.04,0-.09.01-.13.01Z"/><path class="cls-1" d="m9.59,12.34L22.13,2.61c.3-.24.71.16.47.47l-9.62,12.63c-.81,1.06-2.32,1.27-3.39.46-1.26-.93-1.26-2.89-.02-3.83h0Z"/></svg>