<?xml version="1.0" encoding="UTF-8"?><svg id="Layer_1" xmlns="http://www.w3.org/2000/svg" viewBox="0 0 15.67 18.58"><defs><style>.cls-1{fill:#231f20;}</style></defs><path class="cls-1" d="m14.31,11.76c2.37-3.37,1.55-8.04-1.82-10.41C9.12-1.01,4.46-.2,2.09,3.17-.02,6.17.4,10.2,2.89,12.72L.24,16.49c-.42.6-.28,1.42.32,1.84.6.42,1.42.28,1.84-.32l2.65-3.77c3.22,1.49,7.15.53,9.25-2.48Zm-9.35.32c-2.54-1.79-3.16-5.31-1.37-7.86,1.79-2.54,5.31-3.16,7.86-1.37s3.16,5.31,1.37,7.85c-1.79,2.54-5.31,3.16-7.85,1.37Z"/></svg>