<?xml version="1.0" encoding="UTF-8"?><svg id="Layer_1" xmlns="http://www.w3.org/2000/svg" viewBox="0 0 93.38 19.14"><defs><style>.cls-1{fill:#757679;}</style></defs><path class="cls-1" d="m28.05.82v1.11c.84.03,1.33.07,1.47.11s.23.09.28.15c.05.06.09.14.11.25.05.27.1.94.14,2.01.02.48.02,1.56.02,3.24v5.29c0,.86-.03,1.8-.09,2.81-.04.69-.07,1.09-.09,1.19-.02.08-.05.14-.11.2-.06.06-.17.11-.33.14-.12.03-.59.05-1.39.09v1.11c.97-.05,2.08-.08,3.33-.08,1.43,0,2.77.02,4.03.08v-1.11c-.76-.02-1.22-.04-1.37-.08-.16-.04-.27-.09-.35-.15s-.13-.15-.16-.27c-.08-.26-.12-.83-.12-1.7l-.03-2.32v-5.1c0-.16.02-1.28.05-3.35,0-.61.02-1.02.03-1.24.02-.4.06-.68.12-.82.02-.08.07-.15.13-.21.06-.05.17-.1.31-.14s.61-.07,1.39-.09V.82c-1.26.05-2.6.08-4.01.08-1.26,0-2.38-.03-3.35-.08Z"/><path class="cls-1" d="m48.64,9.79c-.23-.32-.53-.61-.92-.86-.39-.25-.89-.46-1.52-.64-.24-.06-.76-.17-1.56-.32-.8-.15-1.42-.28-1.87-.38-.59-.17-1.03-.35-1.33-.56-.3-.2-.53-.48-.7-.82-.16-.35-.25-.8-.25-1.35,0-.78.29-1.45.86-2.03.58-.58,1.39-.87,2.44-.87.73,0,1.4.14,1.99.43.59.29,1.01.62,1.25.99.06.41.1,1.1.12,2.08h.97c.02-.86.06-1.55.11-2.08.05-.53.13-1.06.24-1.61l-.09-.3c-.56-.3-1.23-.54-2-.7-.77-.16-1.56-.24-2.38-.24s-1.56.09-2.31.28c-.75.19-1.42.5-2.02.94-.59.44-1.07,1.06-1.44,1.85-.36.8-.54,1.67-.54,2.61,0,.68.1,1.31.3,1.89.2.59.5,1.09.91,1.5.41.41.94.73,1.6.95.44.14,1.36.37,2.76.7.97.25,1.65.48,2.04.71.39.23.67.53.85.91.18.38.27.84.27,1.37,0,.63-.13,1.2-.39,1.7-.26.5-.68.89-1.25,1.17-.58.28-1.23.42-1.96.42-.84,0-1.62-.2-2.33-.59-.71-.4-1.21-.86-1.51-1.38-.1-.9-.14-1.66-.13-2.27h-.97c0,1.97-.13,3.43-.37,4.39.89.47,1.7.81,2.44,1,.74.19,1.59.29,2.54.29,1.3,0,2.41-.2,3.34-.61.58-.25,1.14-.63,1.69-1.15.55-.51.98-1.07,1.29-1.69.41-.82.61-1.77.61-2.85,0-.62-.07-1.17-.22-1.66-.15-.49-.33-.9-.56-1.23Z"/><path class="cls-1" d="m62.41,1.14c-.59-.23-1.39-.34-2.4-.34l-5.18.11-3.43-.09v1.05l1.27.09c.19.04.33.09.4.14.07.05.13.11.16.18.05.11.09.29.11.54.02.25.04.89.05,1.91l.05,2.38v4.47c0,1.65-.04,3.16-.13,4.51-.03.5-.07.81-.13.92-.04.08-.09.15-.16.19-.22.13-.76.2-1.62.22v1.11c1-.05,2.04-.08,3.14-.08,1,0,2.48.02,4.46.08v-1.11l-1.56-.11c-.19-.03-.33-.08-.4-.15-.07-.06-.13-.14-.16-.22-.06-.19-.1-.66-.13-1.39-.03-1.27-.05-2.49-.05-3.67v-4.8l.03-2.48c0-1.01.03-1.78.07-2.3.53-.11,1.02-.17,1.45-.17.91,0,1.62.29,2.13.87.51.58.76,1.45.76,2.61s-.24,1.95-.73,2.52-1.1.87-1.85.87c-.12,0-.26-.01-.41-.04-.15-.03-.31-.07-.48-.13l-.24.28c.2.36.34.66.42.9.23.06.47.1.7.13.24.03.48.04.72.04.98,0,1.9-.26,2.76-.79.86-.53,1.5-1.2,1.9-2.02.41-.82.61-1.71.61-2.66s-.21-1.73-.63-2.33c-.42-.6-.93-1.01-1.51-1.24Z"/><path class="cls-1" d="m77.25,16.46c-.05.12-.1.19-.15.23-.16.11-.6.2-1.3.25-.71.06-1.48.09-2.31.09s-1.6-.03-2.22-.08c-.02-.43-.03-.95-.03-1.54v-5.37c.49-.05,1.1-.08,1.85-.08.83,0,1.52.05,2.05.14.24.04.41.15.5.32.12.23.18.83.17,1.81h1l-.05-2.77.05-2.78h-.94c-.02.75-.07,1.29-.16,1.61-.04.13-.09.21-.17.27-.07.05-.32.08-.74.09-1.1.03-1.75.05-1.92.05-.57,0-1.12-.02-1.65-.06v-2.59c0-1.47.05-2.68.16-3.63.72-.06,1.42-.09,2.11-.09.73,0,1.48.05,2.25.14.52.06.83.13.93.2.06.05.11.13.14.25.05.23.09.84.1,1.84h.9c.07-1.09.11-1.7.12-1.82l.22-1.82-.08-.16c-.18-.05-.31-.08-.38-.08-.85-.03-1.41-.05-1.69-.05l-2.35.06c-1.3.03-2.48.04-3.54.04-.49,0-1,0-1.53-.01l-2.69-.06v1.08c.9.05,1.46.13,1.67.23.08.04.14.11.17.19.09.21.14.79.16,1.75.02,1.43.03,2.25.03,2.47v5.7c0,.66-.03,1.71-.09,3.16-.03.79-.07,1.37-.12,1.72-.29.25-.67.5-1.14.74v.68c2.39-.05,3.69-.08,3.87-.08.69,0,1.96.01,3.8.04l1.86.04c.91,0,1.61-.03,2.11-.09l.15-.16c0-1.08.08-2.46.25-4.13h-.95c-.16,1.13-.3,1.9-.44,2.3Z"/><path class="cls-1" d="m92.42,13.91c-.15.83-.3,1.56-.45,2.2-.07.25-.14.41-.2.47-.06.06-.25.11-.57.16-.87.15-1.9.23-3.07.23-.39,0-1.11-.03-2.18-.08,0-.25-.01-.97-.02-2.16,0-1.19-.01-2.38-.02-3.59,0-2.29-.01-3.51-.01-3.66,0-1.42.02-2.59.05-3.52.03-.93.07-1.45.11-1.56.04-.11.1-.2.19-.25.19-.11.73-.19,1.6-.23V.82c-1.26.05-2.59.08-4,.08-1.26,0-2.38-.03-3.36-.08v1.11c1,.04,1.6.13,1.77.25.09.05.14.13.17.23.07.23.12,1.13.15,2.72.02.62.02,2.27.02,4.94,0,1.81-.02,3.37-.05,4.66-.03,1.3-.07,2.05-.1,2.26,0,.05-.03.1-.06.14-.05.07-.15.15-.31.25-.36.24-.64.4-.85.49v.64c1.55-.08,2.7-.11,3.45-.11.5,0,1.39.02,2.67.05,1.68.04,2.58.06,2.72.06.99,0,1.72-.02,2.19-.06.22-.03.45-.07.67-.14,0-.16.04-.64.1-1.44l.29-2.56s.01-.18.03-.42h-.96Z"/><path class="cls-1" d="m17.1,5.89c.11-.33.2-.66.28-.97.48-2.03.2-3.6-.79-4.41-.99-.81-2.44-.67-4.09.4-.68.44-1.4,1.04-2.13,1.77-.73-.73-1.45-1.33-2.13-1.77C6.58-.15,5.13-.29,4.14.52c-.99.81-1.26,2.37-.79,4.41.07.31.17.64.28.97-2.32.79-3.63,2.06-3.63,3.68s1.31,2.89,3.63,3.68c-.11.33-.2.66-.28.97-.48,2.03-.2,3.6.79,4.41.42.35.93.52,1.5.52.77,0,1.65-.31,2.59-.92.68-.44,1.4-1.04,2.13-1.77.73.73,1.45,1.33,2.13,1.77.95.61,1.83.92,2.59.92.57,0,1.08-.17,1.5-.52.99-.81,1.27-2.37.79-4.41-.07-.31-.17-.64-.28-.97,2.32-.79,3.63-2.06,3.63-3.68s-1.31-2.89-3.63-3.68ZM12.87,1.62c.83-.54,1.58-.81,2.21-.81.41,0,.77.12,1.06.36h0c.73.6.91,1.86.51,3.55-.07.3-.17.62-.27.95-1.13-.31-2.45-.52-3.95-.62-.51-.66-1.02-1.26-1.52-1.8.68-.67,1.34-1.22,1.97-1.63Zm.26,10.22c-.36.52-.71,1-1.06,1.46-.54.03-1.1.05-1.7.05s-1.16-.02-1.7-.05c-.35-.46-.71-.94-1.06-1.46-.53-.78-1.01-1.53-1.44-2.27.43-.73.9-1.49,1.44-2.27.35-.52.71-1,1.06-1.46.54-.03,1.1-.05,1.7-.05s1.16.02,1.7.05c.35.46.71.94,1.06,1.46.53.78,1.01,1.53,1.44,2.27-.43.73-.9,1.49-1.44,2.27Zm1.87-1.5c.45.83.82,1.62,1.11,2.36-.86.23-1.86.41-3.02.52.21-.29.42-.59.64-.9.46-.68.89-1.34,1.28-1.98Zm-4.64,4.99c-.34-.37-.69-.77-1.04-1.19.34.01.68.02,1.04.02s.7,0,1.04-.02c-.35.42-.69.83-1.04,1.19Zm-2.72-2.11c-1.16-.11-2.16-.29-3.02-.52.29-.75.66-1.54,1.11-2.36.39.65.81,1.31,1.28,1.98.21.31.42.61.64.9Zm-1.91-4.42c-.45-.83-.82-1.62-1.11-2.36.86-.23,1.86-.41,3.02-.52-.21.29-.42.59-.64.9-.46.68-.89,1.34-1.28,1.98Zm4.64-4.99c.34.37.69.77,1.04,1.19-.34-.01-.68-.02-1.04-.02s-.7,0-1.04.02c.35-.42.69-.83,1.04-1.19Zm3.36,3.01c-.21-.31-.42-.6-.64-.9,1.16.11,2.16.29,3.02.52-.29.75-.66,1.54-1.11,2.36-.39-.65-.81-1.31-1.28-1.99Zm-9.65-2.09c-.4-1.69-.22-2.96.51-3.55h0c.29-.24.65-.35,1.06-.35.63,0,1.38.27,2.21.81.63.41,1.29.95,1.97,1.63-.5.54-1.01,1.14-1.52,1.8-1.5.1-2.82.31-3.95.62-.11-.33-.2-.64-.27-.95ZM.74,9.57c0-1.09,1.01-2.19,3.15-2.91.35.91.82,1.89,1.39,2.91-.57,1.02-1.04,2-1.39,2.91-2.14-.73-3.15-1.82-3.15-2.91Zm7.11,7.95c-1.38.89-2.54,1.05-3.27.45-.73-.6-.91-1.86-.51-3.55.07-.3.17-.62.27-.95,1.13.31,2.45.52,3.95.62.51.66,1.02,1.26,1.52,1.8-.68.67-1.34,1.22-1.97,1.63Zm8.8-3.1c.4,1.69.22,2.96-.51,3.55-.73.6-1.89.44-3.27-.45-.63-.41-1.29-.95-1.97-1.63.5-.54,1.01-1.14,1.52-1.8,1.5-.1,2.82-.31,3.95-.62.11.33.2.64.27.95Zm.18-1.93c-.35-.91-.82-1.89-1.39-2.91.57-1.02,1.04-2,1.39-2.91,2.14.73,3.16,1.82,3.16,2.91s-1.01,2.19-3.15,2.91Z"/><circle class="cls-1" cx="10.37" cy="9.67" r="1.91"/></svg>