<?xml version="1.0" encoding="UTF-8"?><svg id="Layer_1" xmlns="http://www.w3.org/2000/svg" viewBox="0 0 108 27"><defs><style>.cls-1{fill:#fff;}</style></defs><path class="cls-1" d="m40.74,3.24v1.25c-.87.03-1.39.06-1.56.11-.16.04-.28.09-.35.16-.07.06-.12.14-.14.23-.06.16-.1.47-.13.92-.02.25-.03.71-.04,1.39-.03,2.32-.05,3.58-.05,3.76v5.71l.04,2.59c0,.97.04,1.61.13,1.9.03.13.09.23.18.3s.21.13.39.17.69.07,1.54.09v1.25c-1.41-.06-2.92-.08-4.52-.08-1.39,0-2.63.03-3.72.08v-1.25c.9-.04,1.42-.07,1.56-.1.18-.04.3-.09.37-.16.06-.07.11-.14.12-.23.03-.11.06-.56.1-1.33.07-1.13.1-2.18.1-3.15v-5.92c0-1.88,0-3.09-.03-3.63-.04-1.2-.1-1.95-.16-2.25-.03-.12-.07-.22-.12-.28s-.16-.12-.31-.16-.7-.08-1.64-.12v-1.25c1.09.06,2.34.08,3.75.08,1.58,0,3.08-.03,4.49-.08Z"/><path class="cls-1" d="m54.96,8.43h-1.09c-.02-1.1-.06-1.87-.13-2.32-.27-.42-.73-.78-1.4-1.11-.66-.32-1.4-.48-2.23-.48-1.18,0-2.09.32-2.73.97-.64.65-.97,1.41-.97,2.27,0,.62.1,1.13.29,1.52.18.39.44.69.78.92.34.23.83.43,1.49.62.5.11,1.2.26,2.1.43.9.17,1.48.29,1.75.35.7.2,1.27.44,1.7.72.43.28.78.6,1.03.96.26.36.46.82.63,1.38.16.55.25,1.17.25,1.86,0,1.21-.23,2.27-.69,3.19-.35.69-.83,1.32-1.44,1.89s-1.25,1-1.89,1.28c-1.04.45-2.28.68-3.74.68-1.06,0-2.01-.11-2.84-.33s-1.74-.59-2.74-1.12c.27-1.08.41-2.72.42-4.92h1.09c-.02.68.03,1.53.14,2.54.33.59.89,1.1,1.69,1.54.8.44,1.67.67,2.61.67.82,0,1.55-.16,2.2-.47.64-.32,1.11-.75,1.4-1.31.29-.56.43-1.19.43-1.9,0-.6-.1-1.11-.3-1.53-.2-.43-.52-.77-.95-1.02-.43-.25-1.19-.52-2.28-.79-1.57-.36-2.6-.62-3.09-.78-.74-.25-1.34-.6-1.8-1.06-.45-.46-.79-1.02-1.02-1.68s-.34-1.36-.34-2.12c0-1.06.2-2.03.61-2.93.41-.89.94-1.58,1.61-2.08s1.42-.84,2.26-1.06c.84-.21,1.7-.32,2.58-.32s1.81.09,2.67.27c.86.18,1.61.44,2.24.78l.1.34c-.12.61-.21,1.22-.27,1.81-.06.59-.1,1.37-.12,2.33Z"/><path class="cls-1" d="m58.65,4.42v-1.18l3.84.1,5.8-.13c1.13,0,2.03.13,2.69.38.66.25,1.22.72,1.69,1.39.47.67.71,1.54.71,2.61s-.23,2.06-.68,2.98c-.45.92-1.16,1.67-2.13,2.26-.96.59-2,.89-3.09.89-.28,0-.55-.02-.81-.05-.26-.03-.53-.08-.78-.15-.09-.26-.24-.6-.47-1.01l.27-.31c.19.07.37.12.54.15.17.03.32.05.46.05.84,0,1.53-.32,2.08-.97.54-.65.82-1.59.82-2.83s-.29-2.27-.86-2.92c-.57-.65-1.37-.98-2.39-.98-.48,0-1.03.06-1.62.18-.04.59-.07,1.45-.08,2.58l-.04,2.78v5.37c0,1.32.02,2.69.05,4.11.03.82.07,1.34.14,1.56.03.09.09.18.18.25.08.07.23.12.45.16l1.75.13v1.25c-2.21-.06-3.88-.08-5-.08-1.23,0-2.4.03-3.52.08v-1.25c.96-.02,1.57-.1,1.82-.24.08-.05.14-.12.18-.21.06-.13.11-.48.14-1.03.09-1.51.14-3.19.14-5.05v-5l-.05-2.66c-.02-1.14-.04-1.86-.06-2.14-.02-.28-.06-.49-.12-.61-.03-.08-.09-.14-.18-.2-.08-.06-.23-.11-.45-.16l-1.43-.1Z"/><path class="cls-1" d="m75.65,23.07v-.77c.52-.26.94-.54,1.27-.82.05-.4.1-1.04.13-1.93.07-1.62.1-2.81.1-3.54v-6.38c0-.25-.01-1.17-.04-2.76-.03-1.07-.09-1.72-.18-1.96-.04-.09-.11-.17-.19-.21-.23-.11-.86-.2-1.87-.26v-1.2l3.01.07c.6,0,1.17.01,1.71.01,1.19,0,2.5-.01,3.96-.04l2.63-.07c.31,0,.94.02,1.89.06.09,0,.23.03.43.08l.09.18-.25,2.04c0,.14-.05.82-.13,2.04h-1.01c-.02-1.11-.06-1.8-.12-2.06-.03-.13-.09-.23-.16-.28-.11-.08-.46-.16-1.04-.23-.86-.1-1.7-.16-2.52-.16-.77,0-1.56.03-2.36.1-.12,1.07-.18,2.42-.18,4.07v2.91c.59.05,1.2.07,1.84.07.2,0,.92-.02,2.15-.06.47,0,.74-.04.82-.1.08-.06.14-.16.19-.3.1-.36.16-.96.18-1.8h1.05l-.05,3.12.05,3.1h-1.12c0-1.1-.06-1.77-.19-2.03-.1-.19-.29-.31-.56-.35-.6-.1-1.36-.16-2.3-.16-.84,0-1.53.03-2.08.08v6.01c0,.67.01,1.25.04,1.73.7.06,1.53.08,2.49.08s1.8-.03,2.59-.1,1.28-.16,1.46-.28c.06-.04.12-.12.17-.25.16-.45.32-1.31.49-2.58h1.06c-.19,1.87-.29,3.41-.29,4.62l-.17.18c-.55.07-1.34.1-2.36.1l-2.09-.04c-2.06-.03-3.48-.04-4.26-.04-.21,0-1.65.03-4.33.08Z"/><path class="cls-1" d="m92.06,23.07v-.72c.22-.1.54-.29.95-.55.18-.11.3-.21.35-.28.03-.05.06-.1.06-.16.04-.24.08-1.08.12-2.53.03-1.45.05-3.19.05-5.22,0-2.99,0-4.83-.03-5.53-.03-1.78-.09-2.79-.17-3.05-.03-.11-.1-.2-.19-.25-.2-.14-.86-.24-1.99-.28v-1.25c1.1.06,2.35.08,3.76.08,1.57,0,3.07-.03,4.48-.08v1.25c-.98.05-1.57.13-1.79.26-.1.06-.16.15-.21.28-.04.13-.08.71-.12,1.75-.04,1.04-.06,2.35-.06,3.94,0,.17,0,1.54.01,4.1,0,1.35.02,2.69.02,4.02s.01,2.13.02,2.42c1.19.06,2.01.08,2.44.08,1.31,0,2.46-.08,3.44-.26.35-.06.57-.12.64-.18.07-.07.14-.24.22-.52.17-.72.34-1.54.51-2.47h1.08c-.03.26-.04.42-.04.47l-.32,2.86c-.07.9-.11,1.44-.12,1.62-.25.08-.5.13-.75.16-.53.05-1.35.07-2.45.07-.16,0-1.17-.02-3.05-.07-1.43-.04-2.42-.06-2.98-.06-.85,0-2.14.04-3.87.13Z"/><path class="cls-1" d="m24.19,13.03c0-1.79-1.49-3.17-4.05-4.04.9-2.76.78-4.88-.53-5.96-.58-.48-1.33-.66-2.18-.55-1.39.2-3.01,1.22-4.74,2.94-1.73-1.71-3.35-2.74-4.74-2.94-.84-.11-1.59.07-2.18.55-1.31,1.07-1.43,3.2-.53,5.96-2.57.87-4.05,2.25-4.05,4.04s1.49,3.17,4.06,4.04c-.9,2.76-.78,4.89.52,5.96.47.39,1.05.58,1.7.58.16,0,.32-.01.48-.03,1.39-.2,3.01-1.23,4.74-2.94,1.73,1.72,3.35,2.74,4.74,2.94.16.02.32.03.48.03.65,0,1.23-.2,1.7-.58,1.31-1.07,1.43-3.2.52-5.96,2.57-.87,4.06-2.25,4.06-4.04Zm-6.64-9.7c.12-.02.24-.02.36-.02.45,0,.83.13,1.15.39h0c.89.73,1.08,2.46.26,5.02-1.24-.33-2.69-.56-4.32-.67-.58-.74-1.15-1.41-1.71-2.01,1.58-1.58,3.05-2.53,4.26-2.7Zm-1.83,12.23c-.39.56-.77,1.09-1.16,1.59-.61.03-1.21.07-1.88.07s-1.27-.04-1.88-.07c-.38-.5-.77-1.03-1.16-1.59-.61-.89-1.14-1.73-1.6-2.54.47-.8.99-1.64,1.6-2.54.39-.56.77-1.09,1.16-1.6.6-.03,1.21-.07,1.88-.07s1.27.04,1.88.07c.38.5.77,1.03,1.16,1.6.62.89,1.14,1.73,1.6,2.54-.47.8-.99,1.64-1.6,2.54Zm2.08-1.65c.5.93.92,1.8,1.22,2.59-.94.26-2.06.45-3.34.57.25-.34.49-.67.74-1.03.5-.73.96-1.44,1.37-2.14Zm-5.12,5.49c-.39-.42-.78-.87-1.17-1.35.39.01.76.04,1.17.04s.78-.03,1.17-.04c-.4.48-.79.94-1.17,1.35Zm-3.01-2.32c-1.28-.12-2.39-.32-3.34-.57.31-.79.73-1.66,1.22-2.59.42.69.87,1.41,1.37,2.14.25.36.49.69.74,1.03Zm-2.11-4.94c-.5-.93-.92-1.8-1.23-2.59.94-.26,2.06-.45,3.34-.57-.25.34-.49.67-.74,1.03-.5.73-.96,1.44-1.37,2.14Zm5.12-5.49c.39.41.78.87,1.17,1.35-.39-.01-.76-.04-1.17-.04s-.78.03-1.17.04c.39-.48.79-.94,1.17-1.35Zm3.75,3.35c-.25-.36-.5-.69-.74-1.03,1.28.12,2.4.32,3.34.57-.31.79-.73,1.67-1.23,2.59-.42-.69-.87-1.41-1.37-2.14ZM6.32,3.7h0c.32-.26.7-.39,1.15-.39.12,0,.24,0,.36.02,1.21.17,2.68,1.13,4.26,2.7-.56.6-1.13,1.27-1.71,2.01-1.63.11-3.09.33-4.32.67-.83-2.56-.64-4.29.26-5.02ZM2.06,13.03c0-1.2,1.13-2.4,3.46-3.21.39,1,.92,2.08,1.56,3.22-.63,1.13-1.17,2.22-1.56,3.21-2.33-.81-3.47-2.01-3.47-3.21Zm5.78,9.7c-.61.07-1.11-.04-1.51-.36-.89-.73-1.08-2.46-.26-5.02,1.24.33,2.69.56,4.32.67.58.74,1.15,1.41,1.71,2.01-1.58,1.58-3.05,2.54-4.26,2.71Zm11.23-.36c-.4.32-.9.44-1.51.36-1.21-.17-2.68-1.13-4.26-2.71.56-.6,1.13-1.27,1.71-2.01,1.63-.11,3.08-.33,4.32-.67.83,2.56.64,4.29-.26,5.02Zm.8-6.12c-.39-1-.92-2.08-1.56-3.21.63-1.13,1.17-2.22,1.56-3.22,2.33.81,3.46,2.01,3.46,3.21s-1.13,2.4-3.47,3.21Z"/><ellipse class="cls-1" cx="12.69" cy="13.03" rx="2.73" ry="2.98"/></svg>