<?xml version="1.0" encoding="UTF-8"?><svg id="Layer_1" xmlns="http://www.w3.org/2000/svg" viewBox="0 0 61.69 12.5"><defs><style>.cls-1{fill:#231f20;}.cls-2{fill:#3392ae;}</style></defs><path class="cls-1" d="m23.36.47v.74c-.52.02-.82.04-.92.06-.1.03-.17.06-.21.09-.04.04-.07.08-.08.14-.04.1-.06.28-.08.54-.01.15-.02.42-.02.82-.02,1.37-.03,2.11-.03,2.22v3.37l.02,1.53c0,.57.03.95.08,1.12.02.08.05.14.1.18.05.04.13.08.23.1.1.03.41.04.91.05v.74c-.83-.03-1.72-.05-2.67-.05-.82,0-1.56.02-2.2.05v-.74c.53-.02.84-.04.92-.06.11-.02.18-.05.22-.09.04-.04.06-.08.07-.13.02-.07.04-.33.06-.79.04-.67.06-1.29.06-1.86v-3.5c0-1.11,0-1.82-.02-2.14-.03-.71-.06-1.15-.09-1.33-.02-.07-.04-.13-.07-.17-.03-.04-.09-.07-.18-.1-.09-.03-.41-.05-.97-.07V.47c.64.03,1.38.05,2.21.05.94,0,1.82-.02,2.65-.05Z"/><path class="cls-1" d="m31.76,3.53h-.64c-.01-.65-.04-1.1-.08-1.37-.16-.25-.43-.46-.82-.65-.39-.19-.83-.28-1.31-.28-.69,0-1.23.19-1.61.57-.38.38-.57.83-.57,1.34,0,.37.06.67.17.9s.26.41.46.54.49.26.88.37c.3.07.71.15,1.24.25.53.1.87.17,1.03.21.41.12.75.26,1,.42s.46.35.61.57.27.49.37.81c.1.33.15.69.15,1.1,0,.71-.14,1.34-.41,1.88-.2.41-.49.78-.85,1.12-.36.34-.74.59-1.12.76-.61.27-1.35.4-2.21.4-.63,0-1.19-.06-1.68-.19-.49-.13-1.03-.35-1.62-.66.16-.64.24-1.6.25-2.9h.64c-.01.4.02.9.08,1.5.19.35.53.65,1,.91.47.26.98.39,1.54.39.49,0,.92-.09,1.3-.28s.66-.44.83-.77c.17-.33.26-.7.26-1.12,0-.35-.06-.65-.18-.9s-.31-.45-.56-.6-.71-.31-1.35-.47c-.92-.21-1.53-.37-1.82-.46-.44-.14-.79-.35-1.06-.63-.27-.27-.47-.6-.6-.99-.13-.39-.2-.81-.2-1.25,0-.63.12-1.2.36-1.73.24-.53.56-.94.95-1.23s.84-.5,1.33-.62c.5-.13,1-.19,1.53-.19s1.07.05,1.58.16c.51.11.95.26,1.32.46l.06.2c-.07.36-.12.72-.16,1.07-.03.35-.06.81-.07,1.38Z"/><path class="cls-1" d="m33.94,1.16V.47l2.27.06,3.43-.08c.67,0,1.2.08,1.59.23.39.15.72.42,1,.82.28.4.42.91.42,1.54s-.13,1.22-.4,1.76c-.27.54-.69.99-1.26,1.34-.57.35-1.18.52-1.83.52-.16,0-.32,0-.48-.03-.16-.02-.31-.05-.46-.09-.05-.16-.14-.35-.28-.59l.16-.18c.11.04.22.07.32.09s.19.03.27.03c.5,0,.9-.19,1.23-.57.32-.38.48-.94.48-1.67s-.17-1.34-.51-1.72c-.34-.38-.81-.58-1.41-.58-.29,0-.61.04-.96.11-.03.35-.04.85-.05,1.52l-.02,1.64v3.17c0,.78.01,1.59.03,2.43.02.49.04.79.08.92.02.06.05.1.1.15.05.04.14.07.26.1l1.03.08v.74c-1.31-.03-2.29-.05-2.95-.05-.73,0-1.42.02-2.08.05v-.74c.57-.01.92-.06,1.07-.14.05-.03.08-.07.11-.13.04-.08.06-.28.08-.61.06-.89.08-1.89.08-2.98v-2.95l-.03-1.57c-.01-.68-.02-1.1-.03-1.26s-.04-.29-.07-.36c-.02-.04-.06-.08-.1-.12-.05-.03-.14-.06-.26-.09l-.84-.06Z"/><path class="cls-1" d="m43.98,12.18v-.45c.31-.16.56-.32.75-.49.03-.23.06-.61.08-1.14.04-.96.06-1.66.06-2.09v-3.77c0-.14,0-.69-.02-1.63-.02-.63-.05-1.02-.11-1.16-.03-.06-.06-.1-.12-.13-.14-.07-.51-.12-1.1-.15V.47l1.78.04c.35,0,.69,0,1.01,0,.7,0,1.48,0,2.34-.03l1.56-.04c.18,0,.56.01,1.12.03.05,0,.14.02.25.05l.05.11-.15,1.21c0,.08-.03.49-.08,1.21h-.6c-.01-.66-.03-1.06-.07-1.21-.02-.08-.05-.13-.09-.17-.07-.05-.27-.09-.61-.13-.51-.06-1-.09-1.49-.09-.46,0-.92.02-1.39.06-.07.63-.11,1.43-.11,2.4v1.72c.35.03.71.04,1.09.04.12,0,.54-.01,1.27-.03.28,0,.44-.03.49-.06s.09-.09.11-.18c.06-.21.1-.57.11-1.06h.62l-.03,1.84.03,1.83h-.66c0-.65-.03-1.05-.12-1.2-.06-.11-.17-.18-.33-.21-.35-.06-.8-.09-1.36-.09-.5,0-.9.02-1.23.05v3.55c0,.4,0,.74.02,1.02.41.03.9.05,1.47.05s1.06-.02,1.53-.06c.47-.04.75-.09.86-.17.04-.02.07-.07.1-.15.09-.27.19-.78.29-1.52h.63c-.11,1.1-.17,2.01-.17,2.73l-.1.11c-.33.04-.79.06-1.39.06l-1.23-.03c-1.22-.02-2.05-.03-2.51-.03-.12,0-.98.02-2.56.05Z"/><path class="cls-1" d="m53.67,12.18v-.43c.13-.06.32-.17.56-.33.11-.07.18-.12.21-.17.02-.03.03-.06.04-.09.03-.14.05-.64.07-1.49.02-.86.03-1.88.03-3.08,0-1.76,0-2.85-.02-3.26-.02-1.05-.05-1.65-.1-1.8-.02-.07-.06-.12-.12-.15-.12-.08-.51-.14-1.17-.17V.47c.65.03,1.39.05,2.22.05.93,0,1.81-.02,2.64-.05v.74c-.58.03-.93.08-1.06.15-.06.03-.1.09-.12.16s-.05.42-.07,1.03c-.02.61-.03,1.39-.03,2.33,0,.1,0,.91,0,2.42,0,.8,0,1.59.01,2.37,0,.78,0,1.26.01,1.43.71.03,1.19.05,1.44.05.78,0,1.45-.05,2.03-.15.21-.03.33-.07.38-.11.04-.04.08-.14.13-.31.1-.42.2-.91.3-1.46h.64c-.02.16-.02.25-.02.28l-.19,1.69c-.04.53-.06.85-.07.95-.15.04-.3.08-.44.09-.31.03-.79.04-1.45.04-.09,0-.69-.01-1.8-.04-.84-.02-1.43-.03-1.76-.03-.5,0-1.26.03-2.28.08Z"/><path class="cls-2" d="m13.58,6.25c0-1.06-.88-1.87-2.39-2.39.53-1.63.46-2.88-.31-3.52-.35-.28-.79-.39-1.29-.33-.82.12-1.78.72-2.8,1.74C5.77.74,4.82.14,3.99.02c-.5-.06-.94.04-1.29.33-.77.63-.84,1.89-.31,3.52-1.52.51-2.39,1.33-2.39,2.39s.88,1.87,2.4,2.39c-.53,1.63-.46,2.89.31,3.52.28.23.62.35,1,.35.09,0,.19,0,.28-.02.82-.12,1.78-.72,2.8-1.74,1.02,1.01,1.98,1.62,2.8,1.74.1.01.19.02.28.02.38,0,.73-.12,1-.35.77-.63.84-1.89.31-3.52,1.52-.51,2.4-1.33,2.4-2.39ZM9.66.52c.07-.01.14-.01.21-.01.26,0,.49.08.68.23h0c.53.43.64,1.45.15,2.96-.73-.2-1.59-.33-2.55-.4-.34-.44-.68-.83-1.01-1.19.94-.93,1.8-1.5,2.52-1.6Zm-1.08,7.23c-.23.33-.46.64-.68.94-.36.02-.71.04-1.11.04s-.75-.02-1.11-.04c-.23-.3-.45-.61-.68-.94-.36-.53-.67-1.02-.95-1.5.28-.48.58-.97.95-1.5.23-.33.46-.65.68-.94.36-.02.71-.04,1.11-.04s.75.02,1.11.04c.23.3.45.61.68.94.36.53.67,1.02.95,1.5-.28.48-.58.97-.95,1.5Zm1.23-.97c.29.55.54,1.06.72,1.53-.56.15-1.22.27-1.97.34.15-.2.29-.39.44-.61.3-.43.56-.85.81-1.26Zm-3.02,3.24c-.23-.25-.46-.51-.69-.8.23,0,.45.02.69.02s.46-.02.69-.02c-.23.29-.46.55-.69.8Zm-1.78-1.37c-.75-.07-1.41-.19-1.97-.34.18-.47.43-.98.72-1.53.25.41.51.83.81,1.26.15.21.29.41.44.61Zm-1.25-2.92c-.29-.55-.54-1.07-.72-1.53.56-.15,1.22-.27,1.97-.34-.15.2-.29.39-.44.61-.3.43-.56.85-.81,1.26Zm3.02-3.24c.23.24.46.51.69.8-.23,0-.45-.02-.69-.02s-.46.02-.69.02c.23-.29.46-.55.69-.8Zm2.21,1.98c-.15-.21-.29-.41-.44-.61.76.07,1.42.19,1.97.34-.18.47-.43.98-.72,1.53-.25-.41-.51-.83-.81-1.26ZM3.03.74h0c.19-.15.41-.23.68-.23.07,0,.14,0,.21.01.71.1,1.58.67,2.52,1.6-.33.35-.67.75-1.01,1.19-.97.06-1.82.2-2.55.4-.49-1.51-.38-2.53.15-2.96ZM.51,6.25c0-.71.67-1.42,2.05-1.9.23.59.55,1.23.92,1.9-.37.67-.69,1.31-.92,1.9-1.38-.48-2.05-1.19-2.05-1.9Zm3.41,5.73c-.36.04-.66-.02-.89-.22-.53-.43-.64-1.45-.15-2.97.73.2,1.59.33,2.55.4.34.44.68.83,1.01,1.19-.94.93-1.8,1.5-2.52,1.6Zm6.64-.22c-.23.19-.53.26-.89.22-.71-.1-1.58-.67-2.52-1.6.33-.35.67-.75,1.01-1.19.96-.06,1.82-.2,2.55-.4.49,1.51.38,2.53-.15,2.97Zm.47-3.61c-.23-.59-.55-1.23-.92-1.9.37-.67.69-1.31.92-1.9,1.38.48,2.05,1.19,2.05,1.9s-.67,1.42-2.05,1.9Z"/><ellipse class="cls-2" cx="6.79" cy="6.25" rx="1.61" ry="1.76"/></svg>